<svg xmlns="http://www.w3.org/2000/svg">
<symbol id="air" viewBox="0 0 40.4 40.4"><path d="M39.8 5.2c.6-1.9.5-3.3-.3-4.3Q38-.2 35.3.7a12.5 12.5 0 0 0-5 3l-4.5 4.7-19-4.6A.8.8 0 0 0 6 4L2.3 7.6a.9.9 0 0 0-.3.8 1 1 0 0 0 .5.6L17 17l-7.4 7.4-5.5-1.5a.6.6 0 0 0-.2 0 .9.9 0 0 0-.7.2L.5 26a1 1 0 0 0-.3.7.8.8 0 0 0 .4.7l7.2 5.4 5.4 7.1a1 1 0 0 0 .7.4 1 1 0 0 0 .7-.2l2.7-2.8a.9.9 0 0 0 .2-.9L16 30.8l7.4-7.4 8 14.5a.8.8 0 0 0 .6.5.6.6 0 0 0 .2 0 .8.8 0 0 0 .5-.2l3.7-2.8a.9.9 0 0 0 .3-.9l-4.5-19.8 4.5-4.6a12.4 12.4 0 0 0 3.1-5z"/></symbol>
<symbol id="amex" viewBox="0 0 47.9 16.4"><path class="cls-1" d="M34.5 1.8l-.8 2.1h1.7l-.9-2.1zM4.1 1.8l-.9 2.1H5L4 1.8zM24.3 2.1a1.4 1.4 0 0 0-.6-.1h-1.6v1.2h1.6a1.2 1.2 0 0 0 .6-.1.6.6 0 0 0 .3-.5.5.5 0 0 0-.3-.5zM29.8 11.3a1.3 1.3 0 0 0-.6 0h-1.6v1.1h1.6a1.3 1.3 0 0 0 .6 0 .6.6 0 0 0 .3-.6.5.5 0 0 0-.3-.5zM23.6 11.2h-1.7v1.4h1.6c.5 0 .8-.2.8-.7s-.3-.7-.7-.7z"/><path class="cls-1" d="M47.3 12a.9.9 0 0 0 .4-.7V10a.9.9 0 0 0-1-.9h-2.5a2.8 2.8 0 0 0-1.9.6.9.9 0 0 0-.8-.6H39a3 3 0 0 0-1.7.5.9.9 0 0 0-.7-.5h-4.3a.9.9 0 0 0-.8.5 1 1 0 0 0-.1-.1 3.9 3.9 0 0 0-2-.4h-3a.9.9 0 0 0-.8.5 3.6 3.6 0 0 0-2-.5h-4.1a.9.9 0 0 0-.7.3l-1 1-.9-1a.9.9 0 0 0-.7-.2h-5a.9.9 0 0 0-.9.9v5.3a.9.9 0 0 0 .9 1h5a.9.9 0 0 0 .7-.4l1-1 1 1a.9.9 0 0 0 .6.3H22a.9.9 0 0 0 .9-1v-.8h.7a3.8 3.8 0 0 0 2-.5v1.4a.9.9 0 0 0 .8.9h1.3a.9.9 0 0 0 1-1v-1h.7v1.1a.9.9 0 0 0 .8.9h1.3a.9.9 0 0 0 .4-.1.9.9 0 0 0 .4 0h4.3a.9.9 0 0 0 .4 0 .8.8 0 0 0 .4 0h2.5a3.3 3.3 0 0 0 1.9-.5.9.9 0 0 0 .8.6H45c1.8 0 2.9-1 2.9-2.6a2.4 2.4 0 0 0-.6-1.8zm-23.8 1.7h-1.6v1.8h-2.5l-1.6-1.8-1.6 1.8H11V10h5.2l1.5 1.8 1.7-1.8h4c1 0 2.2.3 2.2 1.8s-1 1.8-2.2 1.8zm7-.7a1.4 1.4 0 0 1 .7.5 1.6 1.6 0 0 1 .2 1v1h-1.3v-.7c0-.3 0-.8-.2-1s-.4-.3-1-.3h-1.3v2h-1.3v-5.4h3a3 3 0 0 1 1.6.3 1.3 1.3 0 0 1 .6 1.2 1.5 1.5 0 0 1-1 1.4zm6-1.8h-3v1h3v1.1h-3v1h3v1.2h-4.3v-5.4h4.3zm3.3 4.3h-2.5v-1.2h2.5a.7.7 0 0 0 .5-.1.5.5 0 0 0 .1-.3.5.5 0 0 0-.1-.4.7.7 0 0 0-.5-.1c-1.2 0-2.7 0-2.7-1.7 0-.8.5-1.6 1.8-1.6h2.6v1.2h-2.3a.8.8 0 0 0-.6 0 .4.4 0 0 0-.2.4.4.4 0 0 0 .3.4 1.4 1.4 0 0 0 .5.1h.7a2 2 0 0 1 1.5.4 1.5 1.5 0 0 1 .4 1.2c0 1.2-.8 1.7-2 1.7zm5.2 0h-2.5v-1.2H45a.8.8 0 0 0 .5-.1.5.5 0 0 0 .2-.3.5.5 0 0 0-.2-.4.7.7 0 0 0-.4-.1c-1.2 0-2.7 0-2.7-1.7 0-.8.5-1.6 1.8-1.6h2.6v1.2h-2.4a.8.8 0 0 0-.5 0 .4.4 0 0 0-.2.4.4.4 0 0 0 .3.4 1.4 1.4 0 0 0 .5.1h.7a2 2 0 0 1 1.4.4 1.5 1.5 0 0 1 .4 1.2c0 1.2-.7 1.7-2 1.7zM43.2 0H42a.9.9 0 0 0-.9.9v.5l-.6-1a.9.9 0 0 0-.7-.4h-2a.9.9 0 0 0-1 .9v.7l-.3-1a.9.9 0 0 0-.9-.6h-1.9a.8.8 0 0 0-.5.2.9.9 0 0 0-.5-.2h-1.3a3.6 3.6 0 0 0-2.4.8.9.9 0 0 0-.8-.8h-1.4a.9.9 0 0 0-.7.5 1.7 1.7 0 0 0-.2-.1 3.8 3.8 0 0 0-2-.4h-3a.9.9 0 0 0-.4.1.8.8 0 0 0-.4-.1h-4.3a.9.9 0 0 0-.5.2.9.9 0 0 0-.5-.2h-2.1a.9.9 0 0 0-.8.5L11 2.3 10.2.5a.9.9 0 0 0-.8-.5H7.3a.9.9 0 0 0-1 .9v.8L6 .5a.9.9 0 0 0-.8-.5H3a.9.9 0 0 0-.7.5L0 6a.9.9 0 0 0 0 .8.9.9 0 0 0 .8.4h1.4a.9.9 0 0 0 .8-.5l.3-.7h1.4l.3.7A.9.9 0 0 0 6 7h2.7a.9.9 0 0 0 .8-.8l.2.3a.9.9 0 0 0 .8.6h1.1a.9.9 0 0 0 .9-.6l.1-.3a.9.9 0 0 0 1 .8h1.2a.9.9 0 0 0 .5-.1.9.9 0 0 0 .5.2H20a.8.8 0 0 0 .4-.2.9.9 0 0 0 .5.1H22a.9.9 0 0 0 .9-.8V5.2h.7v1a.9.9 0 0 0 1 1H26a.8.8 0 0 0 .3-.2.8.8 0 0 0 .4.1H28a.9.9 0 0 0 1-.7 3.7 3.7 0 0 0 2.2.7h1.5a.9.9 0 0 0 .8-.5l.3-.7h1.5l.3.7a.9.9 0 0 0 .8.5H39a.9.9 0 0 0 .9-.9v-.8l.8 1.3a.9.9 0 0 0 .7.4h1.9a.9.9 0 0 0 .8-.8V.8a.9.9 0 0 0-.9-.9zM14.7 6.3h-1.3V2l-1.9 4.3h-1L8.4 2v4.3H6L5.5 5H2.8l-.5 1.2H.9L3.2.8H5L7.3 6V.9h2L11 4.5 12.6 1h2.1zM20 2h-3v1h3v1.1h-3v1h3v1.2h-4.3V.8H20zm5.1 1.8a1.5 1.5 0 0 1 .6.4 1.6 1.6 0 0 1 .2 1v1h-1.3v-.6a1.6 1.6 0 0 0-.2-1c-.1-.2-.4-.3-.9-.3h-1.4v2h-1.3V1h3a3 3 0 0 1 1.6.2 1.3 1.3 0 0 1 .6 1.2 1.5 1.5 0 0 1-.9 1.5zm3 2.5h-1.4V.8h1.4zm15.2 0h-1.9l-2.4-4v4h-2.6L35.9 5h-2.7l-.5 1.2h-1.5a2.7 2.7 0 0 1-1.8-.6 2.7 2.7 0 0 1-.7-2 2.9 2.9 0 0 1 .7-2.1 2.6 2.6 0 0 1 2-.6h1.2V2h-1.3a1.2 1.2 0 0 0-1 .3 1.9 1.9 0 0 0-.3 1.3 1.9 1.9 0 0 0 .3 1.2 1.3 1.3 0 0 0 1 .3h.5L33.6 1h2L37.6 6V.9h2L42 4.6V1h1.3zM31.8 2.9l-.6 1.3H31a1.4 1.4 0 0 1-.1-.6A1.4 1.4 0 0 1 31 3h.4z"/><path class="cls-1" d="M18.6 12.8l2 2.2v-4.3l-2 2.1zM15.6 11.2h-3.2v1h2.8v1.1h-2.8v1h3.1l1.5-1.5-1.4-1.6z"/></symbol>
<symbol id="discover" viewBox="0 0 48 22.3"><path class="cls-1" d="M35.7 1.3V.2H32v6.6h3.7v-1h-2.4V3.8h2.3V2.8h-2.3V1.3h2.4zM39.3 4A1.8 1.8 0 0 0 41 2.1c0-1.2-1-2-2.4-2h-2v6.7H38V4.2h.1l1.8 2.6h1.6zm-1-.8h-.4v-2h.4c.8 0 1.2.4 1.2 1s-.4 1-1.3 1zM41.4 0a.5.5 0 0 0-.5.6.5.5 0 1 0 .5-.5zm0 1a.4.4 0 0 1-.4-.4.4.4 0 1 1 .8 0 .4.4 0 0 1-.4.4z"/><path class="cls-1" d="M41.5.6a.2.2 0 0 0 .1-.1c0-.2 0-.2-.2-.2h-.2v.6h.1V.6l.2.3h.2zm-.1 0V.3v.1zM6.1.2h1.3v6.7H6.1zM10.5 2.7c-.8-.2-1-.4-1-.8s.4-.7 1-.7a1.3 1.3 0 0 1 1 .5l.7-.9a3 3 0 0 0-2-.7 2 2 0 0 0-2 1.9c0 1 .4 1.4 1.6 1.8a5.2 5.2 0 0 1 1 .4.8.8 0 0 1 .3.7 1 1 0 0 1-1 1 1.5 1.5 0 0 1-1.4-1l-.8.9A2.6 2.6 0 0 0 10.2 7a2.1 2.1 0 0 0 2.2-2.2c0-1-.4-1.5-1.9-2zM12.7 22.3H48V9.6s-12.5 8.8-35.3 12.7zM1.9.2H0v6.6h1.9a3.5 3.5 0 0 0 2.4-.7 3.3 3.3 0 0 0 1.2-2.6A3.3 3.3 0 0 0 1.9.2zm1.5 5a2.4 2.4 0 0 1-1.8.5h-.3V1.3h.3a2.4 2.4 0 0 1 1.8.6 2.2 2.2 0 0 1 .7 1.6 2.3 2.3 0 0 1-.7 1.7zM30 .2l-1.8 4.5L26.6.2H25L27.9 7h.7L31.4.2h-1.3zM22 0a3.5 3.5 0 0 0-3.3 2.2 3.5 3.5 0 0 0-.3 1.3 3.5 3.5 0 0 0 7 1v-.1-.2a3.4 3.4 0 0 0 0-.7A3.5 3.5 0 0 0 22 0zM16.4 1.2A2.2 2.2 0 0 1 18 2V.4a3.3 3.3 0 0 0-1.6-.4 3.5 3.5 0 0 0-3.5 3.5A3.4 3.4 0 0 0 16.4 7a3.7 3.7 0 0 0 1.6-.4V5.1a2 2 0 0 1-1.6.7 2.2 2.2 0 0 1-2.2-2.3 2.2 2.2 0 0 1 2.2-2.3z"/></symbol>
<symbol id="f" viewBox="0 0 40 40"><path d="M40 20a20 20 0 1 0-20 20 20 20 0 0 0 20-20zM2 20a18 18 0 1 1 18 18A18 18 0 0 1 2 20z"/><path d="M21 32V20h4v-4h-4v-2c0-1 0-2 2-2h3V9h-4c-4 0-5 2-5 5v2h-2v4h2v12z"/></symbol>
<symbol id="fb" viewBox="0 0 12.3 26.1"><path d="M11.6.2h-3c-3.1 0-5 2.5-5 6.4v2.9h-3a.5.5 0 0 0-.4.5v4.3a.5.5 0 0 0 .4.4h3v10.7a.5.5 0 0 0 .4.5h3.7a.5.5 0 0 0 .5-.5V14.7h3.4a.5.5 0 0 0 .4-.5V10a.6.6 0 0 0-.1-.3.5.5 0 0 0-.3-.2H8V7c0-1.2.3-1.7 1.7-1.7h2a.5.5 0 0 0 .3-.6v-4a.5.5 0 0 0-.4-.5z"/></symbol>
<symbol id="help" viewBox="0 0 60.98 60.98"><path d="M30.5.49A30 30 0 0 0 9.28 51.7 30 30 0 0 0 51.72 9.28 29.82 29.82 0 0 0 30.5.49zm12.64 6.75l-6.65 6.65a17.1 17.1 0 0 0-11.55 0l-6.78-6.81a26.56 26.56 0 0 1 25 .16zm-22.09 32.4a13.6 13.6 0 1 1 9.63 4 13.61 13.61 0 0 1-9.63-4zM7.83 16.82l6.89 6.89a17.32 17.32 0 0 0-.17 12.12l-7.3 7.3a26.52 26.52 0 0 1 .58-26.31zm9.29 36.5L24.45 46A17 17 0 0 0 37 46l7.18 7.18a26.54 26.54 0 0 1-27 .17zm36.79-10.5l-7.08-7.08a17.27 17.27 0 0 0-.17-11.94l6.67-6.67a26.53 26.53 0 0 1 .58 25.69z"/></symbol>
<symbol id="i" viewBox="0 0 41 41"><path d="M20 0a20 20 0 1 0 20 20A20 20 0 0 0 20 0zm0 38a18 18 0 1 1 18-18 18 18 0 0 1-18 18z"/><path d="M28 11H13a2 2 0 0 0-2 2v15a2 2 0 0 0 2 2h15a2 2 0 0 0 2-2V13a2 2 0 0 0-2-2zm0 17H13V13h15z"/><path d="M24 15h3v2h-3z"/><circle cx="20" cy="21" r="3"/><path d="M24 21a4 4 0 0 1-8 0v-2h-2v7h12v-7h-2z"/></symbol>
<symbol id="in" viewBox="0 0 20.3 20.3"><path d="M2.7.1h14.9A2.5 2.5 0 0 1 20 2.7v14.9a2.5 2.5 0 0 1-2.5 2.5H2.7a2.5 2.5 0 0 1-2.6-2.5V2.7A2.5 2.5 0 0 1 2.7.1zm12 2.3a1 1 0 0 0-.9.9v2.1a1 1 0 0 0 1 1H17a.9.9 0 0 0 .9-1V3.3a.9.9 0 0 0-.9-1zM18 8.6H16a5.7 5.7 0 0 1 .3 1.7 6.1 6.1 0 0 1-6.2 6 6.1 6.1 0 0 1-6.3-6 5.7 5.7 0 0 1 .3-1.7H2.4V17a.8.8 0 0 0 .8.8H17a.8.8 0 0 0 .8-.8V8.6zm-7.7-2.4a4 4 0 0 0-4 3.9 4 4 0 0 0 4 3.9 4 4 0 0 0 4-3.9 4 4 0 0 0-4-3.9z"/></symbol>
<symbol id="master" viewBox="0 0 48.4 29"><path d="M34 0a14.4 14.4 0 0 0-9.8 3.8A14.4 14.4 0 0 0 14.5 0h-.1a14.5 14.5 0 1 0 9.8 25.3 14 14 0 0 1-1.5-1.6h3a14.4 14.4 0 0 1-1.4 1.5 14.5 14.5 0 0 0 24.1-10.7A14.5 14.5 0 0 0 34 0zM23 5.3h2.7a15.7 15.7 0 0 1 1 1.5H22l1-1.5zm-2 3h6.6a16.2 16.2 0 0 1 .6 1.6h-8l.8-1.6zM6 18.2l.8-5.5-2 5.5h-1l-.2-5.5-1 5.5H1.3l1.2-7.4h2.3v4.6l1.6-4.6h2.4l-1.2 7.4zm5.2 0v-.6a2 2 0 0 1-1.5.7 1.5 1.5 0 0 1-1.5-1.6c0-1.8 1.4-2.3 2.7-2.3h.7a1 1 0 0 0 0-.4c0-.5-.5-.6-1-.6a5 5 0 0 0-1.7.3l.2-1.3A5.3 5.3 0 0 1 11 12a1.8 1.8 0 0 1 2.1 1.8l-.6 4.3zm5.7-1.9c0 2-2 2-2.3 2a5 5 0 0 1-1.7-.2l.2-1.3a5 5 0 0 0 1.3.2c.5 0 1 0 1-.5 0-.8-1.9-.6-1.9-2.4 0-1.5 1.2-2 2.3-2a7.2 7.2 0 0 1 1.4.2l-.2 1.3-1-.1c-.6 0-.8.1-.8.5-.1.8 1.7.4 1.7 2.3zm2.4.5h.4l-.2 1.4a4 4 0 0 1-1.1.2A1.1 1.1 0 0 1 17 17c0-.6 1-5.7 1-5.7h1.5l-.2 1h.8l-.2 1.4h-.8l-.4 2.7c0 .2 0 .4.5.4zm3.4-4.7a2 2 0 0 1 2.2 2.2 10.7 10.7 0 0 1-.2 1.4h-3.1s-.3 1.3 1.3 1.3a4.8 4.8 0 0 0 1.7-.4l-.3 1.5a3.9 3.9 0 0 1-1.6.3 2.4 2.4 0 0 1-2.7-2.8c0-1.9 1.1-3.5 2.7-3.5zm4 10h-5a16.6 16.6 0 0 1-1-1.5h7a15.6 15.6 0 0 1-1 1.6zm-.2-4h-1.6l1-6h1.4l-.1 1s.5-1 1.2-1a1.7 1.7 0 0 1 .3 0A5.8 5.8 0 0 0 28 14c-1.1-.4-1.2 1.7-1.7 4.2zm6 0a7.2 7.2 0 0 1-1.4.2c-1.8 0-2.8-1.3-2.8-3.2 0-2.9 1.8-4.4 3.5-4.4a5.7 5.7 0 0 1 1.8.3l-.3 1.7a2.7 2.7 0 0 0-1.4-.5c-1 0-2 1-2 2.9a1.5 1.5 0 0 0 1.5 1.7 3.7 3.7 0 0 0 1.3-.4zm3.7 0v-.5a2 2 0 0 1-1.6.7 1.5 1.5 0 0 1-1.5-1.7c0-1.7 1.4-2.3 2.7-2.3h.7a1 1 0 0 0 0-.4c0-.4-.4-.5-1-.5a4.9 4.9 0 0 0-1.6.3l.2-1.3A5.4 5.4 0 0 1 36 12a1.8 1.8 0 0 1 2.1 1.8l-.6 4.3zm3.2 0h-1.6l1-6h1.5l-.2 1s.5-1 1.2-1a1.5 1.5 0 0 1 .3 0A6.2 6.2 0 0 0 41 14c-1-.4-1.1 1.7-1.6 4.2zm4.7 0v-.5a2 2 0 0 1-1.4.7c-1.2 0-1.9-1.3-1.9-2.5 0-2 1.2-3.7 2.6-3.7a2 2 0 0 1 1.5.8l.3-2h1.6l-1.2 7.3zm3-.1a.5.5 0 0 1-.1.1.4.4 0 0 1-.5 0 .4.4 0 0 1-.1-.1.4.4 0 0 1-.1-.3.4.4 0 0 1 0-.2.5.5 0 0 1 .2-.2.5.5 0 0 1 .5 0 .5.5 0 0 1 .2.2.4.4 0 0 1 0 .2.5.5 0 0 1 0 .3z"/><path d="M47 22.4H47v.1h.1a.2.2 0 0 0 .1 0v-.1z"/><path d="M47.4 22.3a.4.4 0 0 0-.2-.2.5.5 0 0 0-.2 0 .5.5 0 0 0-.2 0 .4.4 0 0 0-.2.2.5.5 0 0 0 0 .2.5.5 0 0 0 0 .3.5.5 0 0 0 .2.1.5.5 0 0 0 .4 0 .4.4 0 0 0 .2-.1.4.4 0 0 0 0-.3.5.5 0 0 0 0-.2zm-.3.5a.3.3 0 0 0-.1-.2h-.1v.2-.5h.2a.2.2 0 0 1 0 .2v.2zM11 15.5c-1.1 0-1.4.5-1.4 1a.6.6 0 0 0 .7.5c.9 0 1-1.2 1-1.5a1 1 0 0 0-.3 0zM22.7 13.4c-.8 0-1 1-1 1h1.7s.2-1-.7-1zM43.7 13.6c-.7 0-1.2.8-1.2 2 0 .7.3 1.2.8 1.2.9 0 1.3-1 1.3-2s-.3-1.2-.9-1.2zM47.1 17.6a.4.4 0 0 0-.1-.2.3.3 0 0 0-.2 0 .3.3 0 0 0-.2 0 .3.3 0 0 0-.2.2.5.5 0 0 0 0 .1.5.5 0 0 0 0 .2.5.5 0 0 0 .2.2.5.5 0 0 0 .2 0 .5.5 0 0 0 .2 0 .5.5 0 0 0 .1-.2.5.5 0 0 0 0-.1.5.5 0 0 0 0-.3zm-.2.4a.3.3 0 0 0 0-.2h-.1v.2h-.1v-.5h.1a.2.2 0 0 1 .2 0 .1.1 0 0 1 0 .2V18zM36 15.5c-1.1 0-1.4.5-1.4 1a.6.6 0 0 0 .6.5c1 0 1.2-1.2 1.1-1.5a1 1 0 0 0-.3 0z"/><path d="M46.9 17.6h-.2v.1h.2v-.1z"/></symbol>
<symbol id="menu" viewBox="0 0 98.55 94.83"><title>menu</title><path d="M92.69,2.75H5.86a3,3,0,0,0-3,3V19.08a3,3,0,0,0,3,3H92.69a3,3,0,0,0,3-3V5.75A3,3,0,0,0,92.69,2.75Z"/><path d="M92.69,37.75H5.86a3,3,0,0,0-3,3V54.08a3,3,0,0,0,3,3H92.69a3,3,0,0,0,3-3V40.75A3,3,0,0,0,92.69,37.75Z"/><path d="M92.69,72.75H5.86a3,3,0,0,0-3,3V89.08a3,3,0,0,0,3,3H92.69a3,3,0,0,0,3-3V75.75A3,3,0,0,0,92.69,72.75Z"/></symbol>
<symbol id="p" viewBox="0 0 41 41"><path d="M30 17c0-4-4-8-9-8-7 0-10 4-10 8 0 3 1 5 3 6l1-1v-1a4 4 0 0 1-1-3 7 7 0 0 1 6-7c4 0 6 2 6 5 0 4-2 8-4 8a2 2 0 0 1-2-3l1-5a2 2 0 0 0-2-2c-1 0-3 2-3 4a6 6 0 0 0 1 2l-2 8a12 12 0 0 0 0 3h1a12 12 0 0 0 2-3l1-3a4 4 0 0 0 3 1c5 0 8-4 8-9z"/><path d="M40 20a20 20 0 1 0-20 20 20 20 0 0 0 20-20zM2 20a18 18 0 1 1 18 18A18 18 0 0 1 2 20z"/></symbol>
<symbol id="phone" viewBox="0 0 20.4 20.4"><path d="M20.2 16a5 5 0 0 1-.2 1 6.8 6.8 0 0 1-.3 1 3.9 3.9 0 0 1-1.7 1.5 5.5 5.5 0 0 1-2.6.7 6.3 6.3 0 0 1-.8 0 4.9 4.9 0 0 1-.8-.3l-.7-.1-.8-.3-.7-.3A12.4 12.4 0 0 1 9.2 18a20.9 20.9 0 0 1-3.8-3 20.9 20.9 0 0 1-3-3.8 12.4 12.4 0 0 1-1.2-2.5L.9 8l-.3-.8-.2-.6a5.1 5.1 0 0 1-.2-.8 6.3 6.3 0 0 1 0-.8 5.5 5.5 0 0 1 .7-2.6A3.9 3.9 0 0 1 2.4.6a6.8 6.8 0 0 1 1-.3 5 5 0 0 1 1-.1.7.7 0 0 1 .3 0c.2 0 .4.4.8 1l.4.8.5 1 .4.7.3.4a3.8 3.8 0 0 1 .3.5.9.9 0 0 1 0 .4 1.2 1.2 0 0 1-.3.7 8.2 8.2 0 0 1-.9.8 7.1 7.1 0 0 0-.9.7c-.3.3-.4.5-.4.7a.8.8 0 0 0 .1.3l.1.3.2.3.2.3A14.8 14.8 0 0 0 8 12.4a14.6 14.6 0 0 0 3.3 2.5l.3.2.3.2.3.1a.9.9 0 0 0 .3 0 1 1 0 0 0 .7-.3 7.1 7.1 0 0 0 .7-1 8.2 8.2 0 0 1 .8-.8 1.2 1.2 0 0 1 .7-.4.9.9 0 0 1 .4.1 3.8 3.8 0 0 1 .5.3l.4.3.7.4 1 .5.7.4q1 .5 1 .8a.7.7 0 0 1 0 .3z"/></symbol>
<symbol id="pin" viewBox="0 0 20.3 20.3"> <path d="M10.1.1a10 10 0 0 0-4 19.2 8.6 8.6 0 0 1 .2-2.3l1.3-5.5a3.9 3.9 0 0 1-.3-1.5c0-1.5.8-2.6 1.9-2.6A1.3 1.3 0 0 1 10.5 9a21.8 21.8 0 0 1-.9 3.6 1.6 1.6 0 0 0 1.6 1.9c2 0 3.2-2.4 3.2-5.3 0-2.2-1.5-3.9-4.2-3.9A4.7 4.7 0 0 0 5.3 10a2.9 2.9 0 0 0 .7 2 .5.5 0 0 1 .1.6l-.2.8a.3.3 0 0 1-.5.2c-1.4-.6-2-2.2-2-3.9 0-2.8 2.4-6.2 7.1-6.2 3.8 0 6.3 2.8 6.3 5.7 0 4-2.1 6.9-5.4 6.9A2.9 2.9 0 0 1 9 14.8l-.7 2.8a8.3 8.3 0 0 1-1 2.1 9.8 9.8 0 0 0 2.8.4 10 10 0 0 0 0-20"/> </symbol>
<symbol id="rss" viewBox="0 0 30.4 30.4"><path d="M4.3 22a4 4 0 0 0-2.9 1.2 4 4 0 0 0 0 5.8 4 4 0 0 0 2.9 1.2A4 4 0 0 0 7.2 29a4 4 0 0 0 0-5.8A4 4 0 0 0 4.3 22zM13.7 16.7a18.7 18.7 0 0 0-5.5-3.9 19.1 19.1 0 0 0-6.5-1.7h-.1a1.2 1.2 0 0 0-1 .4 1.2 1.2 0 0 0-.4 1v2.8a1.3 1.3 0 0 0 .4 1 1.3 1.3 0 0 0 .8.4 13.2 13.2 0 0 1 8.4 4 13.2 13.2 0 0 1 4 8.3 1.3 1.3 0 0 0 .3.9 1.3 1.3 0 0 0 1 .3h2.8a1.2 1.2 0 0 0 1-.4 1.3 1.3 0 0 0 .4-1 19 19 0 0 0-1.7-6.5 18.8 18.8 0 0 0-3.9-5.6z"/><path d="M27.6 18a29.8 29.8 0 0 0-6.2-9 29.8 29.8 0 0 0-9-6.3A29.8 29.8 0 0 0 1.5.2a1.3 1.3 0 0 0-1 .4 1.3 1.3 0 0 0-.4 1v3a1.3 1.3 0 0 0 .4 1 1.3 1.3 0 0 0 .9.4A24.1 24.1 0 0 1 10.2 8a24.7 24.7 0 0 1 7.1 5 24.6 24.6 0 0 1 5 7.1 23.9 23.9 0 0 1 2.1 8.7 1.3 1.3 0 0 0 .4 1 1.3 1.3 0 0 0 1 .3h3a1.3 1.3 0 0 0 1-.4 1.3 1.3 0 0 0 .4-1A29.5 29.5 0 0 0 27.6 18z"/></symbol>
<symbol id="t" viewBox="0 0 40.7 40.7"><path d="M28.93 16.38v-.6a9.09 9.09 0 0 0 2.2-2.38 8.32 8.32 0 0 1-2.54.7 4.5 4.5 0 0 0 2-2.54 8.42 8.42 0 0 1-2.81 1.08 4.39 4.39 0 0 0-3.22-1.52 4.47 4.47 0 0 0-4.42 4.61 5.29 5.29 0 0 0 .11 1.06 12.44 12.44 0 0 1-9.11-5 4.89 4.89 0 0 0-.6 2.36 4.84 4.84 0 0 0 2 4 4.15 4.15 0 0 1-2-.61v.06A4.69 4.69 0 0 0 14 22.17a4.06 4.06 0 0 1-1.16.16 3.77 3.77 0 0 1-.83-.09 4.5 4.5 0 0 0 4.13 3.29 8.61 8.61 0 0 1-5.49 2 9.28 9.28 0 0 1-1.06-.07 12 12 0 0 0 6.78 2.12c8.11 0 12.56-7.07 12.56-13.2z"/><path d="M40.35 20.35a20 20 0 1 0-20 20 20 20 0 0 0 20-20zm-38.18 0a18.18 18.18 0 1 1 18.18 18.18A18.18 18.18 0 0 1 2.17 20.35z"/></symbol>
<symbol id="time" viewBox="0 0 50.7 50.7"><path d="M47 12.8a24.8 24.8 0 0 0-9.1-9A24.4 24.4 0 0 0 25.4.3a24.4 24.4 0 0 0-12.6 3.3 24.8 24.8 0 0 0-9 9.1A24.5 24.5 0 0 0 .3 25.4a24.4 24.4 0 0 0 3.3 12.5 24.8 24.8 0 0 0 9.1 9.1 24.4 24.4 0 0 0 12.5 3.4A24.4 24.4 0 0 0 38 47a24.8 24.8 0 0 0 9.1-9.1 24.4 24.4 0 0 0 3.4-12.6A24.4 24.4 0 0 0 47 12.8zm-6.3 21.4a17.8 17.8 0 0 1-6.5 6.5 17.3 17.3 0 0 1-8.9 2.4 17.3 17.3 0 0 1-8.8-2.4 17.7 17.7 0 0 1-6.5-6.5 17.3 17.3 0 0 1-2.4-8.9 17.3 17.3 0 0 1 2.4-8.8 17.7 17.7 0 0 1 6.5-6.5 17.3 17.3 0 0 1 8.8-2.4 17.3 17.3 0 0 1 9 2.4 17.7 17.7 0 0 1 6.4 6.5 17.3 17.3 0 0 1 2.4 8.8 17.3 17.3 0 0 1-2.4 9z"/><path d="M28.5 12.8h-2.1a1 1 0 0 0-1 1v11.6h-7.3a1 1 0 0 0-1 1v2a1 1 0 0 0 1 1h10.4a1 1 0 0 0 1-1V14a1 1 0 0 0-1-1z"/></symbol>
<symbol id="twitt" viewBox="0 0 37.2 30.6"><path d="M36.8 3.9A15.2 15.2 0 0 1 32.5 5 7.3 7.3 0 0 0 35.8.9 14 14 0 0 1 31 2.7 7.2 7.2 0 0 0 25.5.3a7.1 7.1 0 0 0-5.3 2.2A7.1 7.1 0 0 0 18 7.8a7.2 7.2 0 0 0 .2 1.7 20.7 20.7 0 0 1-8.6-2.3 21.8 21.8 0 0 1-6.9-5.5 7.5 7.5 0 0 0-1 3.8A7.2 7.2 0 0 0 5 11.8a8.7 8.7 0 0 1-3.6-1v.2a7.2 7.2 0 0 0 1.8 4.8 7.5 7.5 0 0 0 4.4 2.6 6.7 6.7 0 0 1-1.8.3 8.2 8.2 0 0 1-1.4-.1 7.6 7.6 0 0 0 2.7 3.7 6.8 6.8 0 0 0 4.3 1.5A15.2 15.2 0 0 1 2.1 27a10.9 10.9 0 0 1-1.8-.1 21.4 21.4 0 0 0 11.5 3.4 20.4 20.4 0 0 0 7.5-1.3 19.5 19.5 0 0 0 6-3.4 20.2 20.2 0 0 0 4.3-4.9 21.8 21.8 0 0 0 2.7-5.8 20.8 20.8 0 0 0 1-6v-1a17.4 17.4 0 0 0 3.5-4z"/></symbol>
<symbol id="visa" viewBox="0 0 47.8 14.7"><path d="M19.1.2l-2.4 14.3h4L23 .2h-3.9zM13.5.3L9.7 10l-.4-1.5a15.3 15.3 0 0 0-5.4-5.9l3.4 11.9h4.2l6-14.2z"/><path d="M7.8 1.3A1.6 1.6 0 0 0 6 0H0L0 .4c4.7 1.2 7.8 3.9 9 7.2zM31 3a7.1 7.1 0 0 1 2.8.6l.4.1.5-3.1a10 10 0 0 0-3.5-.6c-3.8 0-6.5 2-6.5 4.7 0 2 1.9 3.2 3.4 3.9s2 1.1 2 1.8c0 1-1.3 1.3-2.4 1.3a8.2 8.2 0 0 1-3.6-.7l-.5-.2L23 14a12.6 12.6 0 0 0 4.3.8c4.1 0 6.8-2 6.8-5 0-1.5-1-2.8-3.3-3.8-1.3-.7-2.2-1-2.1-1.8S29.4 3 30.9 3zM44.7.3h-3a2 2 0 0 0-2 1.1l-5.8 13.1H38l.8-2.1h5l.5 2.1h3.6zm-4.8 9.2l1.5-4L42 4l.2 1.2 1 4.1z"/></symbol>
<symbol id="up" viewBox="0 0 293 171"><path d="M286 138L153 5a9 9 0 0 0-13 0L7 138a9 9 0 0 0 0 13l14 15a9 9 0 0 0 13 0L147 53l112 113a9 9 0 0 0 13 0l14-15a9 9 0 0 0 0-13z"/></symbol>
</svg>