<svg xmlns="http://www.w3.org/2000/svg">
<symbol id="air" viewBox="0 0 40.4 40.4"><path d="M39.8 5.2c.6-1.9.5-3.3-.3-4.3Q38-.2 35.3.7a12.5 12.5 0 0 0-5 3l-4.5 4.7-19-4.6A.8.8 0 0 0 6 4L2.3 7.6a.9.9 0 0 0-.3.8 1 1 0 0 0 .5.6L17 17l-7.4 7.4-5.5-1.5a.6.6 0 0 0-.2 0 .9.9 0 0 0-.7.2L.5 26a1 1 0 0 0-.3.7.8.8 0 0 0 .4.7l7.2 5.4 5.4 7.1a1 1 0 0 0 .7.4 1 1 0 0 0 .7-.2l2.7-2.8a.9.9 0 0 0 .2-.9L16 30.8l7.4-7.4 8 14.5a.8.8 0 0 0 .6.5.6.6 0 0 0 .2 0 .8.8 0 0 0 .5-.2l3.7-2.8a.9.9 0 0 0 .3-.9l-4.5-19.8 4.5-4.6a12.4 12.4 0 0 0 3.1-5z"/></symbol>
<symbol id="f" viewBox="0 0 40 40"><path d="M40 20a20 20 0 1 0-20 20 20 20 0 0 0 20-20zM2 20a18 18 0 1 1 18 18A18 18 0 0 1 2 20z"/><path d="M21 32V20h4v-4h-4v-2c0-1 0-2 2-2h3V9h-4c-4 0-5 2-5 5v2h-2v4h2v12z"/></symbol>
<symbol id="fb" viewBox="0 0 12.3 26.1"><path d="M11.6.2h-3c-3.1 0-5 2.5-5 6.4v2.9h-3a.5.5 0 0 0-.4.5v4.3a.5.5 0 0 0 .4.4h3v10.7a.5.5 0 0 0 .4.5h3.7a.5.5 0 0 0 .5-.5V14.7h3.4a.5.5 0 0 0 .4-.5V10a.6.6 0 0 0-.1-.3.5.5 0 0 0-.3-.2H8V7c0-1.2.3-1.7 1.7-1.7h2a.5.5 0 0 0 .3-.6v-4a.5.5 0 0 0-.4-.5z"/></symbol>
<symbol id="help" viewBox="0 0 60.98 60.98"><path d="M30.5.49A30 30 0 0 0 9.28 51.7 30 30 0 0 0 51.72 9.28 29.82 29.82 0 0 0 30.5.49zm12.64 6.75l-6.65 6.65a17.1 17.1 0 0 0-11.55 0l-6.78-6.81a26.56 26.56 0 0 1 25 .16zm-22.09 32.4a13.6 13.6 0 1 1 9.63 4 13.61 13.61 0 0 1-9.63-4zM7.83 16.82l6.89 6.89a17.32 17.32 0 0 0-.17 12.12l-7.3 7.3a26.52 26.52 0 0 1 .58-26.31zm9.29 36.5L24.45 46A17 17 0 0 0 37 46l7.18 7.18a26.54 26.54 0 0 1-27 .17zm36.79-10.5l-7.08-7.08a17.27 17.27 0 0 0-.17-11.94l6.67-6.67a26.53 26.53 0 0 1 .58 25.69z"/></symbol>
<symbol id="i" viewBox="0 0 41 41"><path d="M20 0a20 20 0 1 0 20 20A20 20 0 0 0 20 0zm0 38a18 18 0 1 1 18-18 18 18 0 0 1-18 18z"/><path d="M28 11H13a2 2 0 0 0-2 2v15a2 2 0 0 0 2 2h15a2 2 0 0 0 2-2V13a2 2 0 0 0-2-2zm0 17H13V13h15z"/><path d="M24 15h3v2h-3z"/><circle cx="20" cy="21" r="3"/><path d="M24 21a4 4 0 0 1-8 0v-2h-2v7h12v-7h-2z"/></symbol>
<symbol id="in" viewBox="0 0 20.3 20.3"><path d="M2.7.1h14.9A2.5 2.5 0 0 1 20 2.7v14.9a2.5 2.5 0 0 1-2.5 2.5H2.7a2.5 2.5 0 0 1-2.6-2.5V2.7A2.5 2.5 0 0 1 2.7.1zm12 2.3a1 1 0 0 0-.9.9v2.1a1 1 0 0 0 1 1H17a.9.9 0 0 0 .9-1V3.3a.9.9 0 0 0-.9-1zM18 8.6H16a5.7 5.7 0 0 1 .3 1.7 6.1 6.1 0 0 1-6.2 6 6.1 6.1 0 0 1-6.3-6 5.7 5.7 0 0 1 .3-1.7H2.4V17a.8.8 0 0 0 .8.8H17a.8.8 0 0 0 .8-.8V8.6zm-7.7-2.4a4 4 0 0 0-4 3.9 4 4 0 0 0 4 3.9 4 4 0 0 0 4-3.9 4 4 0 0 0-4-3.9z"/></symbol>
<symbol id="p" viewBox="0 0 41 41"><path d="M30 17c0-4-4-8-9-8-7 0-10 4-10 8 0 3 1 5 3 6l1-1v-1a4 4 0 0 1-1-3 7 7 0 0 1 6-7c4 0 6 2 6 5 0 4-2 8-4 8a2 2 0 0 1-2-3l1-5a2 2 0 0 0-2-2c-1 0-3 2-3 4a6 6 0 0 0 1 2l-2 8a12 12 0 0 0 0 3h1a12 12 0 0 0 2-3l1-3a4 4 0 0 0 3 1c5 0 8-4 8-9z"/><path d="M40 20a20 20 0 1 0-20 20 20 20 0 0 0 20-20zM2 20a18 18 0 1 1 18 18A18 18 0 0 1 2 20z"/></symbol>
<symbol id="phone" viewBox="0 0 20.4 20.4"><path d="M20.2 16a5 5 0 0 1-.2 1 6.8 6.8 0 0 1-.3 1 3.9 3.9 0 0 1-1.7 1.5 5.5 5.5 0 0 1-2.6.7 6.3 6.3 0 0 1-.8 0 4.9 4.9 0 0 1-.8-.3l-.7-.1-.8-.3-.7-.3A12.4 12.4 0 0 1 9.2 18a20.9 20.9 0 0 1-3.8-3 20.9 20.9 0 0 1-3-3.8 12.4 12.4 0 0 1-1.2-2.5L.9 8l-.3-.8-.2-.6a5.1 5.1 0 0 1-.2-.8 6.3 6.3 0 0 1 0-.8 5.5 5.5 0 0 1 .7-2.6A3.9 3.9 0 0 1 2.4.6a6.8 6.8 0 0 1 1-.3 5 5 0 0 1 1-.1.7.7 0 0 1 .3 0c.2 0 .4.4.8 1l.4.8.5 1 .4.7.3.4a3.8 3.8 0 0 1 .3.5.9.9 0 0 1 0 .4 1.2 1.2 0 0 1-.3.7 8.2 8.2 0 0 1-.9.8 7.1 7.1 0 0 0-.9.7c-.3.3-.4.5-.4.7a.8.8 0 0 0 .1.3l.1.3.2.3.2.3A14.8 14.8 0 0 0 8 12.4a14.6 14.6 0 0 0 3.3 2.5l.3.2.3.2.3.1a.9.9 0 0 0 .3 0 1 1 0 0 0 .7-.3 7.1 7.1 0 0 0 .7-1 8.2 8.2 0 0 1 .8-.8 1.2 1.2 0 0 1 .7-.4.9.9 0 0 1 .4.1 3.8 3.8 0 0 1 .5.3l.4.3.7.4 1 .5.7.4q1 .5 1 .8a.7.7 0 0 1 0 .3z"/></symbol>
<symbol id="pin" viewBox="0 0 20.3 20.3"><path d="M10.1.1a10 10 0 0 0-4 19.2 8.6 8.6 0 0 1 .2-2.3l1.3-5.5a3.9 3.9 0 0 1-.3-1.5c0-1.5.8-2.6 1.9-2.6A1.3 1.3 0 0 1 10.5 9a21.8 21.8 0 0 1-.9 3.6 1.6 1.6 0 0 0 1.6 1.9c2 0 3.2-2.4 3.2-5.3 0-2.2-1.5-3.9-4.2-3.9A4.7 4.7 0 0 0 5.3 10a2.9 2.9 0 0 0 .7 2 .5.5 0 0 1 .1.6l-.2.8a.3.3 0 0 1-.5.2c-1.4-.6-2-2.2-2-3.9 0-2.8 2.4-6.2 7.1-6.2 3.8 0 6.3 2.8 6.3 5.7 0 4-2.1 6.9-5.4 6.9A2.9 2.9 0 0 1 9 14.8l-.7 2.8a8.3 8.3 0 0 1-1 2.1 9.8 9.8 0 0 0 2.8.4 10 10 0 0 0 0-20" fill="#010002"/></symbol>
<symbol id="rss" viewBox="0 0 30.4 30.4"><path d="M4.3 22a4 4 0 0 0-2.9 1.2 4 4 0 0 0 0 5.8 4 4 0 0 0 2.9 1.2A4 4 0 0 0 7.2 29a4 4 0 0 0 0-5.8A4 4 0 0 0 4.3 22zM13.7 16.7a18.7 18.7 0 0 0-5.5-3.9 19.1 19.1 0 0 0-6.5-1.7h-.1a1.2 1.2 0 0 0-1 .4 1.2 1.2 0 0 0-.4 1v2.8a1.3 1.3 0 0 0 .4 1 1.3 1.3 0 0 0 .8.4 13.2 13.2 0 0 1 8.4 4 13.2 13.2 0 0 1 4 8.3 1.3 1.3 0 0 0 .3.9 1.3 1.3 0 0 0 1 .3h2.8a1.2 1.2 0 0 0 1-.4 1.3 1.3 0 0 0 .4-1 19 19 0 0 0-1.7-6.5 18.8 18.8 0 0 0-3.9-5.6z"/><path d="M27.6 18a29.8 29.8 0 0 0-6.2-9 29.8 29.8 0 0 0-9-6.3A29.8 29.8 0 0 0 1.5.2a1.3 1.3 0 0 0-1 .4 1.3 1.3 0 0 0-.4 1v3a1.3 1.3 0 0 0 .4 1 1.3 1.3 0 0 0 .9.4A24.1 24.1 0 0 1 10.2 8a24.7 24.7 0 0 1 7.1 5 24.6 24.6 0 0 1 5 7.1 23.9 23.9 0 0 1 2.1 8.7 1.3 1.3 0 0 0 .4 1 1.3 1.3 0 0 0 1 .3h3a1.3 1.3 0 0 0 1-.4 1.3 1.3 0 0 0 .4-1A29.5 29.5 0 0 0 27.6 18z"/></symbol>
<symbol id="t" viewBox="0 0 40.7 40.7"><path d="M28.93 16.38v-.6a9.09 9.09 0 0 0 2.2-2.38 8.32 8.32 0 0 1-2.54.7 4.5 4.5 0 0 0 2-2.54 8.42 8.42 0 0 1-2.81 1.08 4.39 4.39 0 0 0-3.22-1.52 4.47 4.47 0 0 0-4.42 4.61 5.29 5.29 0 0 0 .11 1.06 12.44 12.44 0 0 1-9.11-5 4.89 4.89 0 0 0-.6 2.36 4.84 4.84 0 0 0 2 4 4.15 4.15 0 0 1-2-.61v.06A4.69 4.69 0 0 0 14 22.17a4.06 4.06 0 0 1-1.16.16 3.77 3.77 0 0 1-.83-.09 4.5 4.5 0 0 0 4.13 3.29 8.61 8.61 0 0 1-5.49 2 9.28 9.28 0 0 1-1.06-.07 12 12 0 0 0 6.78 2.12c8.11 0 12.56-7.07 12.56-13.2z"/><path d="M40.35 20.35a20 20 0 1 0-20 20 20 20 0 0 0 20-20zm-38.18 0a18.18 18.18 0 1 1 18.18 18.18A18.18 18.18 0 0 1 2.17 20.35z"/></symbol>
<symbol id="time" viewBox="0 0 50.7 50.7"><path d="M47 12.8a24.8 24.8 0 0 0-9.1-9A24.4 24.4 0 0 0 25.4.3a24.4 24.4 0 0 0-12.6 3.3 24.8 24.8 0 0 0-9 9.1A24.5 24.5 0 0 0 .3 25.4a24.4 24.4 0 0 0 3.3 12.5 24.8 24.8 0 0 0 9.1 9.1 24.4 24.4 0 0 0 12.5 3.4A24.4 24.4 0 0 0 38 47a24.8 24.8 0 0 0 9.1-9.1 24.4 24.4 0 0 0 3.4-12.6A24.4 24.4 0 0 0 47 12.8zm-6.3 21.4a17.8 17.8 0 0 1-6.5 6.5 17.3 17.3 0 0 1-8.9 2.4 17.3 17.3 0 0 1-8.8-2.4 17.7 17.7 0 0 1-6.5-6.5 17.3 17.3 0 0 1-2.4-8.9 17.3 17.3 0 0 1 2.4-8.8 17.7 17.7 0 0 1 6.5-6.5 17.3 17.3 0 0 1 8.8-2.4 17.3 17.3 0 0 1 9 2.4 17.7 17.7 0 0 1 6.4 6.5 17.3 17.3 0 0 1 2.4 8.8 17.3 17.3 0 0 1-2.4 9z"/><path d="M28.5 12.8h-2.1a1 1 0 0 0-1 1v11.6h-7.3a1 1 0 0 0-1 1v2a1 1 0 0 0 1 1h10.4a1 1 0 0 0 1-1V14a1 1 0 0 0-1-1z"/></symbol>
<symbol id="twitt" viewBox="0 0 30.4 25.3"><path d="M30.2 3.1a12 12 0 0 1-3.5 1A6.3 6.3 0 0 0 29.4.6a12.3 12.3 0 0 1-4 1.6 6 6 0 0 0-4.4-2 6.2 6.2 0 0 0-6.2 6.3 6.2 6.2 0 0 0 .2 1.4A17.3 17.3 0 0 1 2.3 1.3a6.3 6.3 0 0 0-.9 3.2 6.3 6.3 0 0 0 2.8 5.2A6 6 0 0 1 1.4 9a6.3 6.3 0 0 0 5 6.2 6.1 6.1 0 0 1-2.8.1 6.2 6.2 0 0 0 5.7 4.4 12.2 12.2 0 0 1-9.1 2.6 17 17 0 0 0 9.4 2.9c11.3 0 17.5-9.7 17.5-18v-.9a12.2 12.2 0 0 0 3-3.2z" fill="#010002"/></symbol>
</svg>