<svg version="1.0" xmlns="http://www.w3.org/2000/svg" width="304" height="304" viewBox="0 0 228 228"><path d="M60.3 79.9c-6.3 2.6-9.6 5-12.6 9.1-2.1 2.9-3.3 3.8-4.9 3.5-5.3-1.1-15.9-1.9-22.8-1.9C7.8 90.7.8 95.7.4 104.5.1 111.2 6.1 120 11 120c2.7 0 2.9-.9.9-4.7-4.1-8.1 1.1-16.2 12.6-19.5 3.8-1.1 18-1.6 18.9-.7.2.2.6 2.9.7 5.9.2 3 1.5 8.6 3 12.5 3.8 9.7 3.6 18.6-.7 24.7-7 10.1-22.9 11.4-28.6 2.4-2.6-4.2-1.8-11.1 1.7-14.6l2.5-2.5v2.3c0 4.3 6.2 4.1 10.6-.3 3.1-3.1 3.3-8.1.4-9-6.2-2-15.9 3.6-19.5 11.1-6.3 13.2 2.4 23.5 19.4 23 11-.3 14.9-1.8 21-7.8 8.5-8.3 10.1-20.4 4.4-32.8-2-4.5-2.9-8-2.9-11.3.1-2.6.4-4.6.7-4.4.3.1 1.3-.4 2.3-1.2 2.2-1.8 3.1-.8 1.5 1.7-1.7 2.7-.3 6.9 2.9 8.5 3.4 1.8 9.9 1.4 14-.7L80 101l-2.1 5.2c-1.1 2.9-3.4 8.4-4.9 12.3-1.6 3.8-3.2 8.5-3.5 10.3-.4 2.7-.2 3.4 1.9 4.3 1.4.7 3.6.9 4.9.5 2.8-.7 4.5-3.6 2.2-3.6-2 0-2-.4 1.6-9.3 3.1-7.5 6.1-10.9 8-9 .6.6.3 2.5-.8 4.9-.9 2.1-1.7 4.1-1.8 4.4-.1.3-.7 1.8-1.3 3.3-.7 1.6-1.2 3.9-1.2 5.2 0 5.1 8.2 5.8 13 1.1l2.5-2.3 2.2 2.4c5.5 5.8 17.6.3 22.4-10.2 5.2-11.2-.9-18.6-11.5-14.1-5 2.1-9.3 7.2-11.8 13.8-1.4 4.1-2.9 6.3-4.5 7.1-4 1.8-4.3-.3-1.2-7.8 1.6-3.9 2.9-8.2 2.9-9.7 0-3.4-3-5.2-7.5-4.4l-3.3.6 1.4-3.7c1.8-5.3 1.7-7.1-.6-8.3-1.4-.7-2-2.1-2-4.5 0-4.2-3.8-9-8.5-10.5-4.3-1.4-11.3-1-16.2.9zM75.4 82c1.5.5 3.3 2.5 4.2 4.3 1.5 3.2 1.5 3.6-.5 7.5-2.2 4.3-4.5 6-8.8 6.8-3.3.6-6-.3-6.7-2.2-.9-2.4 2.4-8.3 5.5-10 3-1.5 3.9-3.4 1.5-3.4-.7 0-3.9 1.1-7.1 2.5-3.2 1.4-5.9 2.4-6.1 2.2-.3-.2.6-1.6 1.8-3.2 3.7-4.8 10.6-6.7 16.2-4.5zm42 27.7c1.5 3.9-6.1 19.8-9.4 19.8-3.5 0 .4-13.7 5.3-19.3 2.4-2.6 3.3-2.8 4.1-.5zm44.3-15.5c-.2.7.2 2 .9 2.9 1.2 1.3.6 3.5-4.1 15.1-3 7.5-5.6 14.8-5.9 16.2-.8 4.5 4.3 7.2 8.4 4.6 1.2-.8 1.3-1.3.3-2.9-1-1.6-.7-3.2 1.9-9.6 3-7.4 6-10.7 7.9-8.8.6.6-.2 3.7-2.1 8.1-1.6 3.9-3 8.2-3 9.6 0 4.5 5.8 6 11.1 2.9 2.6-1.6 2.9-1.6 4.7 0 2.6 2.3 6.3 2.1 10.3-.6l3.3-2.2 2.3 2.2c2.7 2.8 5.9 2.9 9.7.3 3-1.9 3-1.9 4.3.1 1.6 2.1 5.3 2.5 8.6.8 3.7-1.9 6.7-5.2 6.7-7.2s-.1-2-2.3.1c-2.4 2.2-5.7 3-5.7 1.3 0-.5 1.8-5.3 4-10.7 2.2-5.4 3.8-10 3.5-10.2-1-1-14.2-1.1-17.2-.1-4.2 1.4-10.6 8.6-12.3 14.1-1.6 5.2-3.7 7.8-6.2 7.8-2.3 0-2.3-.8.6-8 3.3-8.2 4-11.8 2.6-13.5-1.5-1.8-7.1-2-8.8-.3-1.6 1.6-1.5 2.8.3 2.8 2.2 0 1.9 2.1-1.9 10.3-2.3 5.1-4.1 7.7-5.6 8.2-3.7 1.2-4-.7-.9-7.8 3.7-8.8 3.8-12.3.3-13.9-1.9-.9-3.3-.9-5.6 0-2.4.9-2.9.8-2.5-.3.3-.7 1.1-3.2 1.8-5.5 1.2-3.8 1.1-4.4-.6-5.6-2.3-1.7-8.2-1.8-8.8-.2zm55.3 15c0 .7-1.4 5-3.2 9.5-2.5 6.5-3.8 8.5-5.9 9.4-3.6 1.4-5.1.4-4.6-3 .6-3.7 5.2-12.6 7.9-15.1 2.4-2.2 5.8-2.7 5.8-.8z"/><path d="M192.6 95.2c-3 4.2 2.5 8.8 6.4 5.3 2-1.8 2.1-3.5.1-5.9-1.9-2.3-4.7-2-6.5.6zm-63.5 11.5c-.6 1.2-.5 2 .6 2.8 1.5 1.2.9 3.4-6.6 21.4-1.7 4-3.3 8.4-3.5 9.7-.8 4.4 3.9 6.8 8.5 4.3 1.9-1 1.9-1.2.5-2.8-1.4-1.6-1.4-2.1 0-5.7 1.5-3.8 1.7-3.9 5.4-3.6 11.7 1.1 24.5-18.1 17.3-26-2-2.2-4.3-2.3-9-.3-3.3 1.4-3.8 1.4-4.5 0-1.2-2.1-7.4-2-8.7.2zm16.3 6.9c-.3 6.4-7.3 16.4-11.5 16.4-1 0-1.9-.3-1.9-.8 0-2.2 6.5-16 8.2-17.5 3.1-2.6 5.3-1.8 5.2 1.9z"/></svg>