<svg data-name="Capa 1" xmlns="http://www.w3.org/2000/svg" viewBox="0 0 40.4 40.4"><path d="M39.8 5.2c.6-1.9.5-3.3-.3-4.3Q38-.2 35.3.7a12.5 12.5 0 0 0-5 3l-4.5 4.7-19-4.6A.8.8 0 0 0 6 4L2.3 7.6a.9.9 0 0 0-.3.8 1 1 0 0 0 .5.6L17 17l-7.4 7.4-5.5-1.5a.6.6 0 0 0-.2 0 .9.9 0 0 0-.7.2L.5 26a1 1 0 0 0-.3.7.8.8 0 0 0 .4.7l7.2 5.4 5.4 7.1a1 1 0 0 0 .7.4 1 1 0 0 0 .7-.2l2.7-2.8a.9.9 0 0 0 .2-.9L16 30.8l7.4-7.4 8 14.5a.8.8 0 0 0 .6.5.6.6 0 0 0 .2 0 .8.8 0 0 0 .5-.2l3.7-2.8a.9.9 0 0 0 .3-.9l-4.5-19.8 4.5-4.6a12.4 12.4 0 0 0 3.1-5z"/></svg>