<svg id="Capa_1" data-name="Capa 1" xmlns="http://www.w3.org/2000/svg" viewBox="0 0 47.9 16.4"><defs><style>.cls-1{fill:#323030}</style></defs><path class="cls-1" d="M34.5 1.8l-.8 2.1h1.7l-.9-2.1zm-30.4 0l-.9 2.1H5L4 1.8zm20.2.3a1.4 1.4 0 0 0-.6-.1h-1.6v1.2h1.6a1.2 1.2 0 0 0 .6-.1.6.6 0 0 0 .3-.5.5.5 0 0 0-.3-.5zm5.5 9.2a1.3 1.3 0 0 0-.6 0h-1.6v1.1h1.6a1.3 1.3 0 0 0 .6 0 .6.6 0 0 0 .3-.6.5.5 0 0 0-.3-.5zm-6.2-.1h-1.7v1.4h1.6c.5 0 .8-.2.8-.7s-.3-.7-.7-.7z"/><path class="cls-1" d="M47.3 12a.9.9 0 0 0 .4-.7V10a.9.9 0 0 0-1-.9h-2.5a2.8 2.8 0 0 0-1.9.6.9.9 0 0 0-.8-.6H39a3 3 0 0 0-1.7.5.9.9 0 0 0-.7-.5h-4.3a.9.9 0 0 0-.8.5 1 1 0 0 0-.1-.1 3.9 3.9 0 0 0-2-.4h-3a.9.9 0 0 0-.8.5 3.6 3.6 0 0 0-2-.5h-4.1a.9.9 0 0 0-.7.3l-1 1-.9-1a.9.9 0 0 0-.7-.2h-5a.9.9 0 0 0-.9.9v5.3a.9.9 0 0 0 .9 1h5a.9.9 0 0 0 .7-.4l1-1 1 1a.9.9 0 0 0 .6.3H22a.9.9 0 0 0 .9-1v-.8h.7a3.8 3.8 0 0 0 2-.5v1.4a.9.9 0 0 0 .8.9h1.3a.9.9 0 0 0 1-1v-1h.7v1.1a.9.9 0 0 0 .8.9h1.3a.9.9 0 0 0 .4-.1.9.9 0 0 0 .4 0h4.3a.9.9 0 0 0 .4 0 .8.8 0 0 0 .4 0h2.5a3.3 3.3 0 0 0 1.9-.5.9.9 0 0 0 .8.6H45c1.8 0 2.9-1 2.9-2.6a2.4 2.4 0 0 0-.6-1.8zm-23.8 1.7h-1.6v1.8h-2.5l-1.6-1.8-1.6 1.8H11V10h5.2l1.5 1.8 1.7-1.8h4c1 0 2.2.3 2.2 1.8s-1 1.8-2.2 1.8zm7-.7a1.4 1.4 0 0 1 .7.5 1.6 1.6 0 0 1 .2 1v1h-1.3v-.7c0-.3 0-.8-.2-1s-.4-.3-1-.3h-1.3v2h-1.3v-5.4h3a3 3 0 0 1 1.6.3 1.3 1.3 0 0 1 .6 1.2 1.5 1.5 0 0 1-1 1.4zm6-1.8h-3v1h3v1.1h-3v1h3v1.2h-4.3v-5.4h4.3zm3.3 4.3h-2.5v-1.2h2.5a.7.7 0 0 0 .5-.1.5.5 0 0 0 .1-.3.5.5 0 0 0-.1-.4.7.7 0 0 0-.5-.1c-1.2 0-2.7 0-2.7-1.7 0-.8.5-1.6 1.8-1.6h2.6v1.2h-2.3a.8.8 0 0 0-.6 0 .4.4 0 0 0-.2.4.4.4 0 0 0 .3.4 1.4 1.4 0 0 0 .5.1h.7a2 2 0 0 1 1.5.4 1.5 1.5 0 0 1 .4 1.2c0 1.2-.8 1.7-2 1.7zm5.2 0h-2.5v-1.2H45a.8.8 0 0 0 .5-.1.5.5 0 0 0 .2-.3.5.5 0 0 0-.2-.4.7.7 0 0 0-.4-.1c-1.2 0-2.7 0-2.7-1.7 0-.8.5-1.6 1.8-1.6h2.6v1.2h-2.4a.8.8 0 0 0-.5 0 .4.4 0 0 0-.2.4.4.4 0 0 0 .3.4 1.4 1.4 0 0 0 .5.1h.7a2 2 0 0 1 1.4.4 1.5 1.5 0 0 1 .4 1.2c0 1.2-.7 1.7-2 1.7zM43.2 0H42a.9.9 0 0 0-.9.9v.5l-.6-1a.9.9 0 0 0-.7-.4h-2a.9.9 0 0 0-1 .9v.7l-.3-1a.9.9 0 0 0-.9-.6h-1.9a.8.8 0 0 0-.5.2.9.9 0 0 0-.5-.2h-1.3a3.6 3.6 0 0 0-2.4.8.9.9 0 0 0-.8-.8h-1.4a.9.9 0 0 0-.7.5 1.7 1.7 0 0 0-.2-.1 3.8 3.8 0 0 0-2-.4h-3a.9.9 0 0 0-.4.1.8.8 0 0 0-.4-.1h-4.3a.9.9 0 0 0-.5.2.9.9 0 0 0-.5-.2h-2.1a.9.9 0 0 0-.8.5L11 2.3 10.2.5a.9.9 0 0 0-.8-.5H7.3a.9.9 0 0 0-1 .9v.8L6 .5a.9.9 0 0 0-.8-.5H3a.9.9 0 0 0-.7.5L0 6a.9.9 0 0 0 0 .8.9.9 0 0 0 .8.4h1.4a.9.9 0 0 0 .8-.5l.3-.7h1.4l.3.7A.9.9 0 0 0 6 7h2.7a.9.9 0 0 0 .8-.8l.2.3a.9.9 0 0 0 .8.6h1.1a.9.9 0 0 0 .9-.6l.1-.3a.9.9 0 0 0 1 .8h1.2a.9.9 0 0 0 .5-.1.9.9 0 0 0 .5.2H20a.8.8 0 0 0 .4-.2.9.9 0 0 0 .5.1H22a.9.9 0 0 0 .9-.8v-1h.7v1a.9.9 0 0 0 1 1H26a.8.8 0 0 0 .3-.2.8.8 0 0 0 .4.1H28a.9.9 0 0 0 1-.7 3.7 3.7 0 0 0 2.2.7h1.5a.9.9 0 0 0 .8-.5l.3-.7h1.5l.3.7a.9.9 0 0 0 .8.5H39a.9.9 0 0 0 .9-.9v-.8l.8 1.3a.9.9 0 0 0 .7.4h1.9a.9.9 0 0 0 .8-.8V.8a.9.9 0 0 0-.9-.9zM14.7 6.3h-1.3V2l-1.9 4.3h-1L8.4 2v4.3H6L5.5 5H2.8l-.5 1.2H.9L3.2.8H5L7.3 6V.9h2L11 4.5 12.6 1h2.1zM20 2h-3v1h3v1.1h-3v1h3v1.2h-4.3V.8H20zm5.1 1.8a1.5 1.5 0 0 1 .6.4 1.6 1.6 0 0 1 .2 1v1h-1.3v-.6a1.6 1.6 0 0 0-.2-1c-.1-.2-.4-.3-.9-.3h-1.4v2h-1.3V1h3a3 3 0 0 1 1.6.2 1.3 1.3 0 0 1 .6 1.2 1.5 1.5 0 0 1-.9 1.5zm3 2.5h-1.4V.8h1.4zm15.2 0h-1.9l-2.4-4v4h-2.6L35.9 5h-2.7l-.5 1.2h-1.5a2.7 2.7 0 0 1-1.8-.6 2.7 2.7 0 0 1-.7-2 2.9 2.9 0 0 1 .7-2.1 2.6 2.6 0 0 1 2-.6h1.2V2h-1.3a1.2 1.2 0 0 0-1 .3 1.9 1.9 0 0 0-.3 1.3 1.9 1.9 0 0 0 .3 1.2 1.3 1.3 0 0 0 1 .3h.5L33.6 1h2l2 5V.9h2L42 4.6V1h1.3zM31.8 2.9l-.6 1.3H31a1.4 1.4 0 0 1-.1-.6A1.4 1.4 0 0 1 31 3h.4z"/><path class="cls-1" d="M18.6 12.8l2 2.2v-4.3l-2 2.1zm-3-1.6h-3.2v1h2.8v1.1h-2.8v1h3.1l1.5-1.5-1.4-1.6z"/></svg>