<svg id="Capa_1" data-name="Capa 1" xmlns="http://www.w3.org/2000/svg" viewBox="0 0 48 22.3"><defs><style>.cls-1{fill:#323030}</style></defs><path class="cls-1" d="M35.7 1.3V.2H32v6.6h3.7v-1h-2.4v-2h2.3v-1h-2.3V1.3h2.4zM39.3 4A1.8 1.8 0 0 0 41 2.1c0-1.2-1-2-2.4-2h-2v6.7H38V4.2h.1l1.8 2.6h1.6zm-1-.8h-.4v-2h.4c.8 0 1.2.4 1.2 1s-.4 1-1.3 1zM41.4 0a.5.5 0 0 0-.5.6.5.5 0 1 0 .5-.5zm0 1a.4.4 0 0 1-.4-.4.4.4 0 1 1 .8 0 .4.4 0 0 1-.4.4z"/><path class="cls-1" d="M41.5.6a.2.2 0 0 0 .1-.1c0-.2 0-.2-.2-.2h-.2v.6h.1V.6l.2.3h.2zm-.1 0V.3v.1zM6.1.2h1.3v6.7H6.1zm4.4 2.5c-.8-.2-1-.4-1-.8s.4-.7 1-.7a1.3 1.3 0 0 1 1 .5l.7-.9a3 3 0 0 0-2-.7 2 2 0 0 0-2 1.9c0 1 .4 1.4 1.6 1.8a5.2 5.2 0 0 1 1 .4.8.8 0 0 1 .3.7 1 1 0 0 1-1 1 1.5 1.5 0 0 1-1.4-1l-.8.9A2.6 2.6 0 0 0 10.2 7a2.1 2.1 0 0 0 2.2-2.2c0-1-.4-1.5-1.9-2zm2.2 19.6H48V9.6s-12.5 8.8-35.3 12.7zM1.9.2H0v6.6h1.9a3.5 3.5 0 0 0 2.4-.7 3.3 3.3 0 0 0 1.2-2.6A3.3 3.3 0 0 0 1.9.2zm1.5 5a2.4 2.4 0 0 1-1.8.5h-.3V1.3h.3a2.4 2.4 0 0 1 1.8.6 2.2 2.2 0 0 1 .7 1.6 2.3 2.3 0 0 1-.7 1.7zM30 .2l-1.8 4.5L26.6.2H25L27.9 7h.7L31.4.2h-1.3zM22 0a3.5 3.5 0 0 0-3.3 2.2 3.5 3.5 0 0 0-.3 1.3 3.5 3.5 0 0 0 7 1v-.3a3.4 3.4 0 0 0 0-.7A3.5 3.5 0 0 0 22 0zm-5.6 1.2A2.2 2.2 0 0 1 18 2V.4a3.3 3.3 0 0 0-1.6-.4 3.5 3.5 0 0 0-3.5 3.5A3.4 3.4 0 0 0 16.4 7a3.7 3.7 0 0 0 1.6-.4V5.1a2 2 0 0 1-1.6.7 2.2 2.2 0 0 1-2.2-2.3 2.2 2.2 0 0 1 2.2-2.3z"/></svg>