<svg data-name="Capa 1" xmlns="http://www.w3.org/2000/svg" viewBox="0 0 60.98 60.98"><path d="M30.5.49A30 30 0 0 0 9.28 51.7 30 30 0 0 0 51.72 9.28 29.82 29.82 0 0 0 30.5.49zm12.64 6.75l-6.65 6.65a17.1 17.1 0 0 0-11.55 0l-6.78-6.81a26.56 26.56 0 0 1 25 .16zm-22.09 32.4a13.6 13.6 0 1 1 9.63 4 13.61 13.61 0 0 1-9.63-4zM7.83 16.82l6.89 6.89a17.32 17.32 0 0 0-.17 12.12l-7.3 7.3a26.52 26.52 0 0 1 .58-26.31zm9.29 36.5L24.45 46A17 17 0 0 0 37 46l7.18 7.18a26.54 26.54 0 0 1-27 .17zm36.79-10.5l-7.08-7.08a17.27 17.27 0 0 0-.17-11.94l6.67-6.67a26.53 26.53 0 0 1 .58 25.69z"/></svg>