<svg data-name="Capa 1" xmlns="http://www.w3.org/2000/svg" viewBox="0 0 20.3 20.3"><path d="M2.7.1h14.9A2.5 2.5 0 0 1 20 2.7v14.9a2.5 2.5 0 0 1-2.5 2.5H2.7a2.5 2.5 0 0 1-2.6-2.5V2.7A2.5 2.5 0 0 1 2.7.1zm12 2.3a1 1 0 0 0-.9.9v2.1a1 1 0 0 0 1 1H17a.9.9 0 0 0 .9-1V3.3a.9.9 0 0 0-.9-1zM18 8.6h-2a5.7 5.7 0 0 1 .3 1.7 6.1 6.1 0 0 1-6.2 6 6.1 6.1 0 0 1-6.3-6 5.7 5.7 0 0 1 .3-1.7H2.4V17a.8.8 0 0 0 .8.8H17a.8.8 0 0 0 .8-.8V8.6zm-7.7-2.4a4 4 0 0 0-4 3.9 4 4 0 0 0 4 3.9 4 4 0 0 0 4-3.9 4 4 0 0 0-4-3.9z"/></svg>