<svg data-name="Capa 1" xmlns="http://www.w3.org/2000/svg" viewBox="0 0 48.4 29"><path d="M34 0a14.4 14.4 0 0 0-9.8 3.8A14.4 14.4 0 0 0 14.5 0h-.1a14.5 14.5 0 1 0 9.8 25.3 14 14 0 0 1-1.5-1.6h3a14.4 14.4 0 0 1-1.4 1.5 14.5 14.5 0 0 0 24.1-10.7A14.5 14.5 0 0 0 34 0zM23 5.3h2.7a15.7 15.7 0 0 1 1 1.5H22l1-1.5zm-2 3h6.6a16.2 16.2 0 0 1 .6 1.6h-8l.8-1.6zM6 18.2l.8-5.5-2 5.5h-1l-.2-5.5-1 5.5H1.3l1.2-7.4h2.3v4.6l1.6-4.6h2.4l-1.2 7.4zm5.2 0v-.6a2 2 0 0 1-1.5.7 1.5 1.5 0 0 1-1.5-1.6c0-1.8 1.4-2.3 2.7-2.3h.7a1 1 0 0 0 0-.4c0-.5-.5-.6-1-.6a5 5 0 0 0-1.7.3l.2-1.3A5.3 5.3 0 0 1 11 12a1.8 1.8 0 0 1 2.1 1.8l-.6 4.3zm5.7-1.9c0 2-2 2-2.3 2a5 5 0 0 1-1.7-.2l.2-1.3a5 5 0 0 0 1.3.2c.5 0 1 0 1-.5 0-.8-1.9-.6-1.9-2.4 0-1.5 1.2-2 2.3-2a7.2 7.2 0 0 1 1.4.2l-.2 1.3-1-.1c-.6 0-.8.1-.8.5-.1.8 1.7.4 1.7 2.3zm2.4.5h.4l-.2 1.4a4 4 0 0 1-1.1.2A1.1 1.1 0 0 1 17 17c0-.6 1-5.7 1-5.7h1.5l-.2 1h.8l-.2 1.4h-.8l-.4 2.7c0 .2 0 .4.5.4zm3.4-4.7a2 2 0 0 1 2.2 2.2 10.7 10.7 0 0 1-.2 1.4h-3.1s-.3 1.3 1.3 1.3a4.8 4.8 0 0 0 1.7-.4l-.3 1.5a3.9 3.9 0 0 1-1.6.3 2.4 2.4 0 0 1-2.7-2.8c0-1.9 1.1-3.5 2.7-3.5zm4 10h-5a16.6 16.6 0 0 1-1-1.5h7a15.6 15.6 0 0 1-1 1.6zm-.2-4h-1.6l1-6h1.4l-.1 1s.5-1 1.2-1a1.7 1.7 0 0 1 .3 0A5.8 5.8 0 0 0 28 14c-1.1-.4-1.2 1.7-1.7 4.2zm6 0a7.2 7.2 0 0 1-1.4.2c-1.8 0-2.8-1.3-2.8-3.2 0-2.9 1.8-4.4 3.5-4.4a5.7 5.7 0 0 1 1.8.3l-.3 1.7a2.7 2.7 0 0 0-1.4-.5c-1 0-2 1-2 2.9a1.5 1.5 0 0 0 1.5 1.7 3.7 3.7 0 0 0 1.3-.4zm3.7 0v-.5a2 2 0 0 1-1.6.7 1.5 1.5 0 0 1-1.5-1.7c0-1.7 1.4-2.3 2.7-2.3h.7a1 1 0 0 0 0-.4c0-.4-.4-.5-1-.5a4.9 4.9 0 0 0-1.6.3l.2-1.3A5.4 5.4 0 0 1 36 12a1.8 1.8 0 0 1 2.1 1.8l-.6 4.3zm3.2 0h-1.6l1-6h1.5l-.2 1s.5-1 1.2-1a1.5 1.5 0 0 1 .3 0A6.2 6.2 0 0 0 41 14c-1-.4-1.1 1.7-1.6 4.2zm4.7 0v-.5a2 2 0 0 1-1.4.7c-1.2 0-1.9-1.3-1.9-2.5 0-2 1.2-3.7 2.6-3.7a2 2 0 0 1 1.5.8l.3-2h1.6l-1.2 7.3zm3-.1a.5.5 0 0 1-.1.1.4.4 0 0 1-.5 0 .4.4 0 0 1-.1-.1.4.4 0 0 1-.1-.3.4.4 0 0 1 0-.2.5.5 0 0 1 .2-.2.5.5 0 0 1 .5 0 .5.5 0 0 1 .2.2.4.4 0 0 1 0 .2.5.5 0 0 1 0 .3z"/><path d="M47 22.4v.1h.1a.2.2 0 0 0 .1 0v-.1z"/><path d="M47.4 22.3a.4.4 0 0 0-.2-.2.5.5 0 0 0-.2 0 .5.5 0 0 0-.2 0 .4.4 0 0 0-.2.2.5.5 0 0 0 0 .2.5.5 0 0 0 0 .3.5.5 0 0 0 .2.1.5.5 0 0 0 .4 0 .4.4 0 0 0 .2-.1.4.4 0 0 0 0-.3.5.5 0 0 0 0-.2zm-.3.5a.3.3 0 0 0-.1-.2h-.1v.2-.5h.2a.2.2 0 0 1 0 .2v.2zM11 15.5c-1.1 0-1.4.5-1.4 1a.6.6 0 0 0 .7.5c.9 0 1-1.2 1-1.5a1 1 0 0 0-.3 0zm11.7-2.1c-.8 0-1 1-1 1h1.7s.2-1-.7-1zm21 .2c-.7 0-1.2.8-1.2 2 0 .7.3 1.2.8 1.2.9 0 1.3-1 1.3-2s-.3-1.2-.9-1.2zm3.4 4a.4.4 0 0 0-.1-.2.3.3 0 0 0-.2 0 .3.3 0 0 0-.2 0 .3.3 0 0 0-.2.2.5.5 0 0 0 0 .1.5.5 0 0 0 0 .2.5.5 0 0 0 .2.2.5.5 0 0 0 .2 0 .5.5 0 0 0 .2 0 .5.5 0 0 0 .1-.2.5.5 0 0 0 0-.1.5.5 0 0 0 0-.3zm-.2.4a.3.3 0 0 0 0-.2h-.1v.2h-.1v-.5h.1a.2.2 0 0 1 .2 0 .1.1 0 0 1 0 .2v.3zM36 15.5c-1.1 0-1.4.5-1.4 1a.6.6 0 0 0 .6.5c1 0 1.2-1.2 1.1-1.5a1 1 0 0 0-.3 0z"/><path d="M46.9 17.6h-.2v.1h.2v-.1z"/></svg>