<svg data-name="Слой 1" xmlns="http://www.w3.org/2000/svg" viewBox="0 0 20.4 20.4"><path d="M20.2 16a5 5 0 0 1-.2 1 6.8 6.8 0 0 1-.3 1 3.9 3.9 0 0 1-1.7 1.5 5.5 5.5 0 0 1-2.6.7 6.3 6.3 0 0 1-.8 0 4.9 4.9 0 0 1-.8-.3l-.7-.1-.8-.3-.7-.3A12.4 12.4 0 0 1 9.2 18a20.9 20.9 0 0 1-3.8-3 20.9 20.9 0 0 1-3-3.8 12.4 12.4 0 0 1-1.2-2.5L.9 8l-.3-.8-.2-.6a5.1 5.1 0 0 1-.2-.8 6.3 6.3 0 0 1 0-.8 5.5 5.5 0 0 1 .7-2.6A3.9 3.9 0 0 1 2.4.6a6.8 6.8 0 0 1 1-.3 5 5 0 0 1 1-.1.7.7 0 0 1 .3 0c.2 0 .4.4.8 1l.4.8.5 1 .4.7.3.4a3.8 3.8 0 0 1 .3.5.9.9 0 0 1 0 .4 1.2 1.2 0 0 1-.3.7 8.2 8.2 0 0 1-.9.8 7.1 7.1 0 0 0-.9.7c-.3.3-.4.5-.4.7a.8.8 0 0 0 .1.3l.1.3.2.3.2.3A14.8 14.8 0 0 0 8 12.4a14.6 14.6 0 0 0 3.3 2.5l.3.2.3.2.3.1a.9.9 0 0 0 .3 0 1 1 0 0 0 .7-.3 7.1 7.1 0 0 0 .7-1 8.2 8.2 0 0 1 .8-.8 1.2 1.2 0 0 1 .7-.4.9.9 0 0 1 .4.1 3.8 3.8 0 0 1 .5.3l.4.3.7.4 1 .5.7.4q1 .5 1 .8a.7.7 0 0 1 0 .3z"/></svg>