<svg data-name="Capa 1" xmlns="http://www.w3.org/2000/svg" viewBox="0 0 20.3 20.3"><path d="M10.1.1a10 10 0 0 0-4 19.2 8.6 8.6 0 0 1 .2-2.3l1.3-5.5a3.9 3.9 0 0 1-.3-1.5c0-1.5.8-2.6 1.9-2.6A1.3 1.3 0 0 1 10.5 9a21.8 21.8 0 0 1-.9 3.6 1.6 1.6 0 0 0 1.6 1.9c2 0 3.2-2.4 3.2-5.3 0-2.2-1.5-3.9-4.2-3.9A4.7 4.7 0 0 0 5.3 10a2.9 2.9 0 0 0 .7 2 .5.5 0 0 1 .1.6l-.2.8a.3.3 0 0 1-.5.2c-1.4-.6-2-2.2-2-3.9 0-2.8 2.4-6.2 7.1-6.2 3.8 0 6.3 2.8 6.3 5.7 0 4-2.1 6.9-5.4 6.9A2.9 2.9 0 0 1 9 14.8l-.7 2.8a8.3 8.3 0 0 1-1 2.1 9.8 9.8 0 0 0 2.8.4 10 10 0 0 0 0-20"/></svg>