<svg data-name="Capa 1" xmlns="http://www.w3.org/2000/svg" viewBox="0 0 30.4 30.4"><path d="M4.3 22a4 4 0 0 0-2.9 1.2 4 4 0 0 0 0 5.8 4 4 0 0 0 2.9 1.2A4 4 0 0 0 7.2 29a4 4 0 0 0 0-5.8A4 4 0 0 0 4.3 22zm9.4-5.3a18.7 18.7 0 0 0-5.5-3.9 19.1 19.1 0 0 0-6.5-1.7h-.1a1.2 1.2 0 0 0-1 .4 1.2 1.2 0 0 0-.4 1v2.8a1.3 1.3 0 0 0 .4 1 1.3 1.3 0 0 0 .8.4 13.2 13.2 0 0 1 8.4 4 13.2 13.2 0 0 1 4 8.3 1.3 1.3 0 0 0 .3.9 1.3 1.3 0 0 0 1 .3h2.8a1.2 1.2 0 0 0 1-.4 1.3 1.3 0 0 0 .4-1 19 19 0 0 0-1.7-6.5 18.8 18.8 0 0 0-3.9-5.6z"/><path d="M27.6 18a29.8 29.8 0 0 0-6.2-9 29.8 29.8 0 0 0-9-6.3A29.8 29.8 0 0 0 1.5.2a1.3 1.3 0 0 0-1 .4 1.3 1.3 0 0 0-.4 1v3a1.3 1.3 0 0 0 .4 1 1.3 1.3 0 0 0 .9.4 24.1 24.1 0 0 1 8.8 2 24.7 24.7 0 0 1 7.1 5 24.6 24.6 0 0 1 5 7.1 23.9 23.9 0 0 1 2.1 8.7 1.3 1.3 0 0 0 .4 1 1.3 1.3 0 0 0 1 .3h3a1.3 1.3 0 0 0 1-.4 1.3 1.3 0 0 0 .4-1A29.5 29.5 0 0 0 27.6 18z"/></svg>