<svg data-name="Capa 1" xmlns="http://www.w3.org/2000/svg" viewBox="0 0 40.7 40.7"><path d="M28.93 16.38v-.6a9.09 9.09 0 0 0 2.2-2.38 8.32 8.32 0 0 1-2.54.7 4.5 4.5 0 0 0 2-2.54 8.42 8.42 0 0 1-2.81 1.08 4.39 4.39 0 0 0-3.22-1.52 4.47 4.47 0 0 0-4.42 4.61 5.29 5.29 0 0 0 .11 1.06 12.44 12.44 0 0 1-9.11-5 4.89 4.89 0 0 0-.6 2.36 4.84 4.84 0 0 0 2 4 4.15 4.15 0 0 1-2-.61v.06A4.69 4.69 0 0 0 14 22.17a4.06 4.06 0 0 1-1.16.16 3.77 3.77 0 0 1-.83-.09 4.5 4.5 0 0 0 4.13 3.29 8.61 8.61 0 0 1-5.49 2 9.28 9.28 0 0 1-1.06-.07 12 12 0 0 0 6.78 2.12c8.11 0 12.56-7.07 12.56-13.2z"/><path d="M40.35 20.35a20 20 0 1 0-20 20 20 20 0 0 0 20-20zm-38.18 0a18.18 18.18 0 1 1 18.18 18.18A18.18 18.18 0 0 1 2.17 20.35z"/></svg>