<svg data-name="Capa 1" xmlns="http://www.w3.org/2000/svg" viewBox="0 0 50.7 50.7"><path d="M47 12.8a24.8 24.8 0 0 0-9.1-9A24.4 24.4 0 0 0 25.4.3a24.4 24.4 0 0 0-12.6 3.3 24.8 24.8 0 0 0-9 9.1A24.5 24.5 0 0 0 .3 25.4a24.4 24.4 0 0 0 3.3 12.5 24.8 24.8 0 0 0 9.1 9.1 24.4 24.4 0 0 0 12.5 3.4A24.4 24.4 0 0 0 38 47a24.8 24.8 0 0 0 9.1-9.1 24.4 24.4 0 0 0 3.4-12.6A24.4 24.4 0 0 0 47 12.8zm-6.3 21.4a17.8 17.8 0 0 1-6.5 6.5 17.3 17.3 0 0 1-8.9 2.4 17.3 17.3 0 0 1-8.8-2.4 17.7 17.7 0 0 1-6.5-6.5 17.3 17.3 0 0 1-2.4-8.9 17.3 17.3 0 0 1 2.4-8.8 17.7 17.7 0 0 1 6.5-6.5 17.3 17.3 0 0 1 8.8-2.4 17.3 17.3 0 0 1 9 2.4 17.7 17.7 0 0 1 6.4 6.5 17.3 17.3 0 0 1 2.4 8.8 17.3 17.3 0 0 1-2.4 9z"/><path d="M28.5 12.8h-2.1a1 1 0 0 0-1 1v11.6h-7.3a1 1 0 0 0-1 1v2a1 1 0 0 0 1 1h10.4a1 1 0 0 0 1-1V14a1 1 0 0 0-1-1z"/></svg>