<svg data-name="Слой 1" xmlns="http://www.w3.org/2000/svg" viewBox="0 0 37.2 30.6"><path d="M36.8 3.9A15.2 15.2 0 0 1 32.5 5 7.3 7.3 0 0 0 35.8.9 14 14 0 0 1 31 2.7 7.2 7.2 0 0 0 25.5.3a7.1 7.1 0 0 0-5.3 2.2A7.1 7.1 0 0 0 18 7.8a7.2 7.2 0 0 0 .2 1.7 20.7 20.7 0 0 1-8.6-2.3 21.8 21.8 0 0 1-6.9-5.5 7.5 7.5 0 0 0-1 3.8A7.2 7.2 0 0 0 5 11.8a8.7 8.7 0 0 1-3.6-1v.2a7.2 7.2 0 0 0 1.8 4.8 7.5 7.5 0 0 0 4.4 2.6 6.7 6.7 0 0 1-1.8.3 8.2 8.2 0 0 1-1.4-.1 7.6 7.6 0 0 0 2.7 3.7 6.8 6.8 0 0 0 4.3 1.5A15.2 15.2 0 0 1 2.1 27a10.9 10.9 0 0 1-1.8-.1 21.4 21.4 0 0 0 11.5 3.4 20.4 20.4 0 0 0 7.5-1.3 19.5 19.5 0 0 0 6-3.4 20.2 20.2 0 0 0 4.3-4.9 21.8 21.8 0 0 0 2.7-5.8 20.8 20.8 0 0 0 1-6v-1a17.4 17.4 0 0 0 3.5-4z"/></svg>