<svg data-name="Capa 1" xmlns="http://www.w3.org/2000/svg" viewBox="0 0 47.8 14.7"><path d="M19.1.2l-2.4 14.3h4L23 .2h-3.9zm-5.6.1L9.7 10l-.4-1.5a15.3 15.3 0 0 0-5.4-5.9l3.4 11.9h4.2l6-14.2z"/><path d="M7.8 1.3A1.6 1.6 0 0 0 6 0H0v.4c4.7 1.2 7.8 3.9 9 7.2zM31 3a7.1 7.1 0 0 1 2.8.6l.4.1.5-3.1a10 10 0 0 0-3.5-.6c-3.8 0-6.5 2-6.5 4.7 0 2 1.9 3.2 3.4 3.9s2 1.1 2 1.8c0 1-1.3 1.3-2.4 1.3a8.2 8.2 0 0 1-3.6-.7l-.5-.2L23 14a12.6 12.6 0 0 0 4.3.8c4.1 0 6.8-2 6.8-5 0-1.5-1-2.8-3.3-3.8-1.3-.7-2.2-1-2.1-1.8S29.4 3 30.9 3zM44.7.3h-3a2 2 0 0 0-2 1.1l-5.8 13.1H38l.8-2.1h5l.5 2.1h3.6zm-4.8 9.2l1.5-4L42 4l.2 1.2 1 4.1z"/></svg>